# xmcd
#
# Track frame offsets:
#	150
#	14969
#	31346
#	43542
#	59772
#	76713
#	99588
#	116804
#	131089
#	149120
#	161685
#	181298
#
# Disc length: 2619 seconds
#
# Revision: 3
# Processed by: cddbd v1.5.2PL0 Copyright (c) Steve Scherf et al.
# Submitted via: audiograbber 1.83.01
#
DISCID=b00a390c
DTITLE=Rudy Rotta - Winds of Louisiana
DYEAR=2006
DGENRE=Blues
TTITLE0=Lookin' good
TTITLE1=Look out your window
TTITLE2=Just another man
TTITLE3=You're gone
TTITLE4=Winds of war
TTITLE5=I'm in the groove
TTITLE6=Leave me alone
TTITLE7=Papa grooves funk
TTITLE8=Hear what I'm sayin'
TTITLE9=One night stand
TTITLE10=Many years ago
TTITLE11=No one can change me
EXTD=
EXTT0=
EXTT1=
EXTT2=
EXTT3=
EXTT4=
EXTT5=
EXTT6=
EXTT7=
EXTT8=
EXTT9=
EXTT10=
EXTT11=
PLAYORDER=
